<svg xmlns="http://www.w3.org/2000/svg" version="1.1" xmlns:xlink="http://www.w3.org/1999/xlink" xmlns:svgjs="http://svgjs.dev/svgjs" width="1440" height="560" preserveAspectRatio="none" viewBox="0 0 1440 560"><g mask="url(&quot;#SvgjsMask1003&quot;)" fill="none"><path d="M 0,13 C 57.6,60.6 172.8,236.8 288,251 C 403.2,265.2 460.8,92.8 576,84 C 691.2,75.2 748.8,205.8 864,207 C 979.2,208.2 1036.8,97.6 1152,90 C 1267.2,82.4 1382.4,153.2 1440,169L1440 560L0 560z" fill="rgba(34, 151, 153, 1)"></path><path d="M 0,538 C 96,488 288,294.4 480,288 C 672,281.6 768,487.6 960,506 C 1152,524.4 1344,405.2 1440,380L1440 560L0 560z" fill="rgba(72, 207, 203, 1)"></path></g><defs><mask id="SvgjsMask1003"><rect width="1440" height="560" fill="#ffffff"></rect></mask></defs></svg>