<svg xmlns="http://www.w3.org/2000/svg" version="1.1" xmlns:xlink="http://www.w3.org/1999/xlink" xmlns:svgjs="http://svgjs.dev/svgjs" width="1440" height="560" preserveAspectRatio="none" viewBox="0 0 1440 560"><g mask="url(&quot;#SvgjsMask1001&quot;)" fill="none"><path d="M649.49 448.06L654.65 448.06L654.65 453.22L649.49 453.22z" fill="#d3b714"></path><path d="M690.95 377.49 a22.63 22.63 0 1 0 45.26 0 a22.63 22.63 0 1 0 -45.26 0z" stroke="#037b0b"></path><path d="M1087.02 5.48L1100.53 5.48L1100.53 18.67L1087.02 18.67z" stroke="#d3b714"></path><path d="M459.61 431.82L512.81 431.82L512.81 485.13L459.61 485.13z" fill="#037b0b"></path><path d="M570.59 318.59 a33.41 33.41 0 1 0 66.82 0 a33.41 33.41 0 1 0 -66.82 0z" stroke="#037b0b"></path><path d="M1094.82 339.94L1110.56 339.94L1110.56 349.75L1094.82 349.75z" fill="#e73635"></path><path d="M1060.57 320.58L1099.33 320.58L1099.33 373.91L1060.57 373.91z" fill="#d3b714"></path><path d="M1324.06 361.28a30.65 30.65 0 1 0 6.54-60.95z" fill="#d3b714"></path><path d="M987.69 388.38 a52.86 52.86 0 1 0 105.72 0 a52.86 52.86 0 1 0 -105.72 0z" stroke="#e73635"></path><path d="M1354.66 515.06a47.73 47.73 0 1 0-14.56-94.34z" stroke="#d3b714"></path><path d="M1066.95 505.47a43.78 43.78 0 1 0 87.4 5.22z" fill="#037b0b"></path><path d="M767.59 224.57L804.79 224.57L804.79 261.77L767.59 261.77z" fill="#e73635"></path><path d="M163.13 416.37a52.29 52.29 0 1 0 20.76-102.5z" stroke="#037b0b"></path><path d="M42.98 121.3a32.48 32.48 0 1 0 43 48.69z" stroke="#d3b714"></path><path d="M466.7 62.09a14.85 14.85 0 1 0-26.92-12.54z" fill="#037b0b"></path><path d="M1000.26 59.9 a49.45 49.45 0 1 0 98.9 0 a49.45 49.45 0 1 0 -98.9 0z" stroke="#e73635"></path><path d="M1292.42 242.32L1316.39 242.32L1316.39 266.48L1292.42 266.48z" fill="#d3b714"></path><path d="M468.76 294.29L492.6 294.29L492.6 318.13L468.76 318.13z" stroke="#037b0b"></path><path d="M371.22 141.73 a48.88 48.88 0 1 0 97.76 0 a48.88 48.88 0 1 0 -97.76 0z" stroke="#037b0b"></path><path d="M1029.34 101.11 a49.76 49.76 0 1 0 99.52 0 a49.76 49.76 0 1 0 -99.52 0z" fill="#e73635"></path><path d="M1373.46 107.7a22.29 22.29 0 1 0-7.29 43.98z" stroke="#d3b714"></path><path d="M697.36 529.74L742.6 529.74L742.6 574.98L697.36 574.98z" fill="#037b0b"></path><path d="M1107.06 116.15L1119.86 116.15L1119.86 123.76L1107.06 123.76z" fill="#e73635"></path><path d="M1158.04 502.66L1181.68 502.66L1181.68 529.95L1158.04 529.95z" stroke="#037b0b"></path><path d="M209.12 422.16a42.01 42.01 0 1 0 15.33-82.61z" stroke="#d3b714"></path><path d="M669.12 35.51 a17.96 17.96 0 1 0 35.92 0 a17.96 17.96 0 1 0 -35.92 0z" fill="#037b0b"></path><path d="M641.32 292.59L654.84 292.59L654.84 346.11L641.32 346.11z" fill="#e73635"></path><path d="M305.44 9.05L355.98 9.05L355.98 58.69L305.44 58.69z" fill="#d3b714"></path><path d="M539.99 222.39a41.98 41.98 0 1 0-78.11-30.78z" stroke="#037b0b"></path><path d="M154.69 166.16L159.15 166.16L159.15 187.92L154.69 187.92z" fill="#037b0b"></path><path d="M764.54 471.12 a25.61 25.61 0 1 0 51.22 0 a25.61 25.61 0 1 0 -51.22 0z" fill="#d3b714"></path><path d="M8.41 474.74a8.06 8.06 0 1 0-9.54-13z" fill="#037b0b"></path><path d="M1384.23 167.55L1431.48 167.55L1431.48 202.8L1384.23 202.8z" stroke="#037b0b"></path></g><defs><mask id="SvgjsMask1001"><rect width="1440" height="560" fill="#ffffff"></rect></mask></defs></svg>