<svg xmlns="http://www.w3.org/2000/svg" version="1.1" xmlns:xlink="http://www.w3.org/1999/xlink" xmlns:svgjs="http://svgjs.dev/svgjs" width="1440" height="560" preserveAspectRatio="none" viewBox="0 0 1440 560"><g mask="url(&quot;#SvgjsMask2786&quot;)" fill="none"><rect width="1440" height="560" x="0" y="0" fill="rgba(226, 232, 240, 1)"></rect><use xlink:href="#SvgjsG2794" transform="translate(0, 0)" fill="rgba(223, 134, 83, 1)"></use><use xlink:href="#SvgjsG2794" transform="translate(0, 528)" fill="rgba(223, 134, 83, 1)"></use><use xlink:href="#SvgjsG2794" transform="translate(528, 0)" fill="rgba(255, 213, 127, 1)"></use><use xlink:href="#SvgjsG2794" transform="translate(528, 528)" fill="rgba(255, 213, 127, 1)"></use><use xlink:href="#SvgjsG2794" transform="translate(1056, 0)" fill="rgba(255, 213, 127, 1)"></use><use xlink:href="#SvgjsG2794" transform="translate(1056, 528)" fill="rgba(255, 213, 127, 1)"></use></g><defs><mask id="SvgjsMask2786"><rect width="1440" height="560" fill="#ffffff"></rect></mask><g id="SvgjsG2790"><path d="M15.964 4.774l-1.312 10.327H10.223L8.916 4.774h5.408L15.395 1.04 16 1.21l-1.024 3.562 0.988 0.002zM8.29 10.788s0.166-1.502-2.131-1.502H2.5c-2.293 0-2.131 1.502-2.132 1.502h7.922zM0.368 13.595s-0.162 1.506 2.132 1.506h3.659c2.297 0 2.131-1.506 2.131-1.506H0.369z m7.578-0.727a0.68 0.68 0 0 0 0.68-0.68c0-0.372-0.304-0.676-0.68-0.676H0.68C0.306 11.512 0 11.816 0 12.188a0.682 0.682 0 0 0 0.68 0.68h7.266z"></path></g><g id="SvgjsG2791"><path d="M7.741 5.269c-0.003 0.523-0.481 1.084-1.101 1.084v8.856c0 1.261-1.714 1.261-1.716 0V6.354c-0.602 0-1.127-0.465-1.126-1.159V0.315c-0.001-0.423 0.612-0.44 0.616 0.017v3.606h0.51V0.299c0-0.389 0.59-0.414 0.591 0.016v3.623h0.526V0.307C6.044-0.103 6.618-0.12 6.616 0.323v3.615h0.526V0.307c-0.002-0.406 0.597-0.423 0.599 0.016v4.946zM12.309 1.449v13.76c0.002 1.229-1.715 1.211-1.717 0V9.746h-0.912V1.449c-0.001-1.932 2.631-1.932 2.629 0z"></path></g><g id="SvgjsG2787"><path d="M16 11.289H0C0.001 12.447 0.884 12.984 1.594 12.987H14.406c0.847-0.003 1.59-0.669 1.594-1.698zM12.96 3.12H3.413v6.263c0.002 0.851 0.734 1.523 1.525 1.525h6.194c0.893-0.002 1.502-0.752 1.498-1.525v-0.519c1.768-0.002 3.05-1.328 3.05-2.876 0.001-1.575-1.256-2.869-2.72-2.868zM12.63 7.668V4.298h0.33c1.211-0.002 1.599 1.143 1.593 1.698 0.001 0.896-0.662 1.755-1.923 1.672z"></path></g><g id="SvgjsG2792"><path d="M12.049 4.244l-1.49 11.735H5.527L4.041 4.244h6.146L11.403 0 12.091 0.193l-1.164 4.048 1.122 0.003z" fill-rule="evenodd"></path></g><g id="SvgjsG2793"><path d="M3.898 0s0.232 4.58 4.246 4.192S8.597 0.364 3.898 0m4.203 14.894a2.324 2.324 0 0 1-1.902 0.977c-0.64 0-1.267-0.3-1.689-0.721-0.864-0.943-1.985-3.051-1.986-3.052C1.897 10.822 1.56 9.837 1.56 8.839c0-2.126 1.72-3.968 3.848-3.968 1.05 0 1.996 0.42 2.692 1.099a3.835 3.835 0 0 1 2.69-1.099c2.129 0 3.848 1.842 3.849 3.967 0 0.997-0.334 1.983-0.964 3.259 0 0-1.12 2.108-1.984 3.051-0.423 0.422-1.049 0.722-1.689 0.722a2.321 2.321 0 0 1-1.899-0.977" fill-rule="evenodd"></path></g><g id="SvgjsG2788"><path d="M8.688 6.116c0.878 0.204 1.538 0.96 1.538 1.857v6.893c0 0.213-0.183 0.384-0.402 0.384H5.872a0.395 0.395 0 0 1-0.4-0.384V7.973c0-0.9 0.654-1.657 1.54-1.857V3.031h1.676V6.116zM7.01 1.671h1.676v0.665h-1.676V1.671z"></path></g><g id="SvgjsG2789"><path d="M11.406 2.678H4.629C0.382 2.678 0.682 5.459 0.682 5.459h14.67S15.66 2.678 11.406 2.678zM4.629 13.447h6.777c4.254 0 3.947-2.789 3.946-2.789H0.682s-0.3 2.789 3.947 2.789z m10.087-4.135a1.259 1.259 0 0 0 1.259-1.259c0-0.69-0.562-1.252-1.259-1.252H1.259C0.566 6.801 0 7.363 0 8.052a1.262 1.262 0 0 0 1.259 1.26h13.457z" fill-rule="evenodd"></path></g><g id="SvgjsG2794"><use xlink:href="#SvgjsG2787" transform="translate(0, 0) scale(2.2)" fill="rgba(223, 134, 83, 1)"></use><use xlink:href="#SvgjsG2788" transform="translate(0, 52.800000000000004) scale(2.2)" fill="rgba(255, 213, 127, 1)"></use><use xlink:href="#SvgjsG2789" transform="translate(0, 105.60000000000001) scale(2.2)" fill="rgba(223, 134, 83, 1)"></use><use xlink:href="#SvgjsG2790" transform="translate(0, 158.4) scale(2.2)" fill="rgba(223, 134, 83, 1)"></use><use xlink:href="#SvgjsG2790" transform="translate(0, 211.20000000000002) scale(2.2)" fill="rgba(223, 134, 83, 1)"></use><use xlink:href="#SvgjsG2787" transform="translate(0, 264) scale(2.2)" fill="rgba(223, 134, 83, 1)"></use><use xlink:href="#SvgjsG2787" transform="translate(0, 316.8) scale(2.2)" fill="rgba(223, 134, 83, 1)"></use><use xlink:href="#SvgjsG2787" transform="translate(0, 369.6) scale(2.2)" fill="rgba(223, 134, 83, 1)"></use><use xlink:href="#SvgjsG2789" transform="translate(0, 422.40000000000003) scale(2.2)" fill="rgba(223, 134, 83, 1)"></use><use xlink:href="#SvgjsG2791" transform="translate(0, 475.20000000000005) scale(2.2)" fill="rgba(223, 134, 83, 1)"></use><use xlink:href="#SvgjsG2787" transform="translate(52.800000000000004, 0) scale(2.2)" fill="rgba(255, 213, 127, 1)"></use><use xlink:href="#SvgjsG2789" transform="translate(52.800000000000004, 52.800000000000004) scale(2.2)" fill="rgba(255, 213, 127, 1)"></use><use xlink:href="#SvgjsG2790" transform="translate(52.800000000000004, 105.60000000000001) scale(2.2)" fill="rgba(223, 134, 83, 1)"></use><use xlink:href="#SvgjsG2787" transform="translate(52.800000000000004, 158.4) scale(2.2)" fill="rgba(223, 134, 83, 1)"></use><use xlink:href="#SvgjsG2792" transform="translate(52.800000000000004, 211.20000000000002) scale(2.2)" fill="rgba(255, 213, 127, 1)"></use><use xlink:href="#SvgjsG2790" transform="translate(52.800000000000004, 264) scale(2.2)" fill="rgba(223, 134, 83, 1)"></use><use xlink:href="#SvgjsG2788" transform="translate(52.800000000000004, 316.8) scale(2.2)" fill="rgba(255, 213, 127, 1)"></use><use xlink:href="#SvgjsG2790" transform="translate(52.800000000000004, 369.6) scale(2.2)" fill="rgba(255, 213, 127, 1)"></use><use xlink:href="#SvgjsG2789" transform="translate(52.800000000000004, 422.40000000000003) scale(2.2)" fill="rgba(255, 213, 127, 1)"></use><use xlink:href="#SvgjsG2791" transform="translate(52.800000000000004, 475.20000000000005) scale(2.2)" fill="rgba(223, 134, 83, 1)"></use><use xlink:href="#SvgjsG2790" transform="translate(105.60000000000001, 0) scale(2.2)" fill="rgba(255, 213, 127, 1)"></use><use xlink:href="#SvgjsG2792" transform="translate(105.60000000000001, 52.800000000000004) scale(2.2)" fill="rgba(223, 134, 83, 1)"></use><use xlink:href="#SvgjsG2790" transform="translate(105.60000000000001, 105.60000000000001) scale(2.2)" fill="rgba(223, 134, 83, 1)"></use><use xlink:href="#SvgjsG2792" transform="translate(105.60000000000001, 158.4) scale(2.2)" fill="rgba(255, 213, 127, 1)"></use><use xlink:href="#SvgjsG2789" transform="translate(105.60000000000001, 211.20000000000002) scale(2.2)" fill="rgba(223, 134, 83, 1)"></use><use xlink:href="#SvgjsG2787" transform="translate(105.60000000000001, 264) scale(2.2)" fill="rgba(255, 213, 127, 1)"></use><use xlink:href="#SvgjsG2793" transform="translate(105.60000000000001, 316.8) scale(2.2)" fill="rgba(223, 134, 83, 1)"></use><use xlink:href="#SvgjsG2791" transform="translate(105.60000000000001, 369.6) scale(2.2)" fill="rgba(255, 213, 127, 1)"></use><use xlink:href="#SvgjsG2788" transform="translate(105.60000000000001, 422.40000000000003) scale(2.2)" fill="rgba(255, 213, 127, 1)"></use><use xlink:href="#SvgjsG2792" transform="translate(105.60000000000001, 475.20000000000005) scale(2.2)" fill="rgba(255, 213, 127, 1)"></use><use xlink:href="#SvgjsG2789" transform="translate(158.4, 0) scale(2.2)" fill="rgba(255, 213, 127, 1)"></use><use xlink:href="#SvgjsG2787" transform="translate(158.4, 52.800000000000004) scale(2.2)" fill="rgba(223, 134, 83, 1)"></use><use xlink:href="#SvgjsG2788" transform="translate(158.4, 105.60000000000001) scale(2.2)" fill="rgba(255, 213, 127, 1)"></use><use xlink:href="#SvgjsG2791" transform="translate(158.4, 158.4) scale(2.2)" fill="rgba(223, 134, 83, 1)"></use><use xlink:href="#SvgjsG2792" transform="translate(158.4, 211.20000000000002) scale(2.2)" fill="rgba(223, 134, 83, 1)"></use><use xlink:href="#SvgjsG2793" transform="translate(158.4, 264) scale(2.2)" fill="rgba(223, 134, 83, 1)"></use><use xlink:href="#SvgjsG2791" transform="translate(158.4, 316.8) scale(2.2)" fill="rgba(223, 134, 83, 1)"></use><use xlink:href="#SvgjsG2789" transform="translate(158.4, 369.6) scale(2.2)" fill="rgba(223, 134, 83, 1)"></use><use xlink:href="#SvgjsG2791" transform="translate(158.4, 422.40000000000003) scale(2.2)" fill="rgba(255, 213, 127, 1)"></use><use xlink:href="#SvgjsG2792" transform="translate(158.4, 475.20000000000005) scale(2.2)" fill="rgba(255, 213, 127, 1)"></use><use xlink:href="#SvgjsG2789" transform="translate(211.20000000000002, 0) scale(2.2)" fill="rgba(223, 134, 83, 1)"></use><use xlink:href="#SvgjsG2789" transform="translate(211.20000000000002, 52.800000000000004) scale(2.2)" fill="rgba(255, 213, 127, 1)"></use><use xlink:href="#SvgjsG2792" transform="translate(211.20000000000002, 105.60000000000001) scale(2.2)" fill="rgba(223, 134, 83, 1)"></use><use xlink:href="#SvgjsG2790" transform="translate(211.20000000000002, 158.4) scale(2.2)" fill="rgba(223, 134, 83, 1)"></use><use xlink:href="#SvgjsG2792" transform="translate(211.20000000000002, 211.20000000000002) scale(2.2)" fill="rgba(255, 213, 127, 1)"></use><use xlink:href="#SvgjsG2787" transform="translate(211.20000000000002, 264) scale(2.2)" fill="rgba(255, 213, 127, 1)"></use><use xlink:href="#SvgjsG2789" transform="translate(211.20000000000002, 316.8) scale(2.2)" fill="rgba(255, 213, 127, 1)"></use><use xlink:href="#SvgjsG2788" transform="translate(211.20000000000002, 369.6) scale(2.2)" fill="rgba(223, 134, 83, 1)"></use><use xlink:href="#SvgjsG2793" transform="translate(211.20000000000002, 422.40000000000003) scale(2.2)" fill="rgba(255, 213, 127, 1)"></use><use xlink:href="#SvgjsG2792" transform="translate(211.20000000000002, 475.20000000000005) scale(2.2)" fill="rgba(223, 134, 83, 1)"></use><use xlink:href="#SvgjsG2789" transform="translate(264, 0) scale(2.2)" fill="rgba(255, 213, 127, 1)"></use><use xlink:href="#SvgjsG2793" transform="translate(264, 52.800000000000004) scale(2.2)" fill="rgba(223, 134, 83, 1)"></use><use xlink:href="#SvgjsG2793" transform="translate(264, 105.60000000000001) scale(2.2)" fill="rgba(255, 213, 127, 1)"></use><use xlink:href="#SvgjsG2788" transform="translate(264, 158.4) scale(2.2)" fill="rgba(255, 213, 127, 1)"></use><use xlink:href="#SvgjsG2790" transform="translate(264, 211.20000000000002) scale(2.2)" fill="rgba(255, 213, 127, 1)"></use><use xlink:href="#SvgjsG2787" transform="translate(264, 264) scale(2.2)" fill="rgba(255, 213, 127, 1)"></use><use xlink:href="#SvgjsG2790" transform="translate(264, 316.8) scale(2.2)" fill="rgba(255, 213, 127, 1)"></use><use xlink:href="#SvgjsG2787" transform="translate(264, 369.6) scale(2.2)" fill="rgba(223, 134, 83, 1)"></use><use xlink:href="#SvgjsG2792" transform="translate(264, 422.40000000000003) scale(2.2)" fill="rgba(255, 213, 127, 1)"></use><use xlink:href="#SvgjsG2789" transform="translate(264, 475.20000000000005) scale(2.2)" fill="rgba(223, 134, 83, 1)"></use><use xlink:href="#SvgjsG2793" transform="translate(316.8, 0) scale(2.2)" fill="rgba(255, 213, 127, 1)"></use><use xlink:href="#SvgjsG2790" transform="translate(316.8, 52.800000000000004) scale(2.2)" fill="rgba(223, 134, 83, 1)"></use><use xlink:href="#SvgjsG2787" transform="translate(316.8, 105.60000000000001) scale(2.2)" fill="rgba(255, 213, 127, 1)"></use><use xlink:href="#SvgjsG2788" transform="translate(316.8, 158.4) scale(2.2)" fill="rgba(223, 134, 83, 1)"></use><use xlink:href="#SvgjsG2793" transform="translate(316.8, 211.20000000000002) scale(2.2)" fill="rgba(223, 134, 83, 1)"></use><use xlink:href="#SvgjsG2793" transform="translate(316.8, 264) scale(2.2)" fill="rgba(255, 213, 127, 1)"></use><use xlink:href="#SvgjsG2790" transform="translate(316.8, 316.8) scale(2.2)" fill="rgba(223, 134, 83, 1)"></use><use xlink:href="#SvgjsG2792" transform="translate(316.8, 369.6) scale(2.2)" fill="rgba(255, 213, 127, 1)"></use><use xlink:href="#SvgjsG2790" transform="translate(316.8, 422.40000000000003) scale(2.2)" fill="rgba(255, 213, 127, 1)"></use><use xlink:href="#SvgjsG2791" transform="translate(316.8, 475.20000000000005) scale(2.2)" fill="rgba(223, 134, 83, 1)"></use><use xlink:href="#SvgjsG2789" transform="translate(369.6, 0) scale(2.2)" fill="rgba(223, 134, 83, 1)"></use><use xlink:href="#SvgjsG2792" transform="translate(369.6, 52.800000000000004) scale(2.2)" fill="rgba(255, 213, 127, 1)"></use><use xlink:href="#SvgjsG2793" transform="translate(369.6, 105.60000000000001) scale(2.2)" fill="rgba(255, 213, 127, 1)"></use><use xlink:href="#SvgjsG2793" transform="translate(369.6, 158.4) scale(2.2)" fill="rgba(223, 134, 83, 1)"></use><use xlink:href="#SvgjsG2788" transform="translate(369.6, 211.20000000000002) scale(2.2)" fill="rgba(255, 213, 127, 1)"></use><use xlink:href="#SvgjsG2787" transform="translate(369.6, 264) scale(2.2)" fill="rgba(255, 213, 127, 1)"></use><use xlink:href="#SvgjsG2789" transform="translate(369.6, 316.8) scale(2.2)" fill="rgba(255, 213, 127, 1)"></use><use xlink:href="#SvgjsG2791" transform="translate(369.6, 369.6) scale(2.2)" fill="rgba(223, 134, 83, 1)"></use><use xlink:href="#SvgjsG2787" transform="translate(369.6, 422.40000000000003) scale(2.2)" fill="rgba(255, 213, 127, 1)"></use><use xlink:href="#SvgjsG2792" transform="translate(369.6, 475.20000000000005) scale(2.2)" fill="rgba(255, 213, 127, 1)"></use><use xlink:href="#SvgjsG2793" transform="translate(422.40000000000003, 0) scale(2.2)" fill="rgba(255, 213, 127, 1)"></use><use xlink:href="#SvgjsG2791" transform="translate(422.40000000000003, 52.800000000000004) scale(2.2)" fill="rgba(255, 213, 127, 1)"></use><use xlink:href="#SvgjsG2788" transform="translate(422.40000000000003, 105.60000000000001) scale(2.2)" fill="rgba(255, 213, 127, 1)"></use><use xlink:href="#SvgjsG2789" transform="translate(422.40000000000003, 158.4) scale(2.2)" fill="rgba(255, 213, 127, 1)"></use><use xlink:href="#SvgjsG2790" transform="translate(422.40000000000003, 211.20000000000002) scale(2.2)" fill="rgba(223, 134, 83, 1)"></use><use xlink:href="#SvgjsG2792" transform="translate(422.40000000000003, 264) scale(2.2)" fill="rgba(255, 213, 127, 1)"></use><use xlink:href="#SvgjsG2791" transform="translate(422.40000000000003, 316.8) scale(2.2)" fill="rgba(255, 213, 127, 1)"></use><use xlink:href="#SvgjsG2787" transform="translate(422.40000000000003, 369.6) scale(2.2)" fill="rgba(255, 213, 127, 1)"></use><use xlink:href="#SvgjsG2792" transform="translate(422.40000000000003, 422.40000000000003) scale(2.2)" fill="rgba(255, 213, 127, 1)"></use><use xlink:href="#SvgjsG2788" transform="translate(422.40000000000003, 475.20000000000005) scale(2.2)" fill="rgba(223, 134, 83, 1)"></use><use xlink:href="#SvgjsG2787" transform="translate(475.20000000000005, 0) scale(2.2)" fill="rgba(223, 134, 83, 1)"></use><use xlink:href="#SvgjsG2788" transform="translate(475.20000000000005, 52.800000000000004) scale(2.2)" fill="rgba(223, 134, 83, 1)"></use><use xlink:href="#SvgjsG2789" transform="translate(475.20000000000005, 105.60000000000001) scale(2.2)" fill="rgba(223, 134, 83, 1)"></use><use xlink:href="#SvgjsG2792" transform="translate(475.20000000000005, 158.4) scale(2.2)" fill="rgba(255, 213, 127, 1)"></use><use xlink:href="#SvgjsG2791" transform="translate(475.20000000000005, 211.20000000000002) scale(2.2)" fill="rgba(255, 213, 127, 1)"></use><use xlink:href="#SvgjsG2790" transform="translate(475.20000000000005, 264) scale(2.2)" fill="rgba(255, 213, 127, 1)"></use><use xlink:href="#SvgjsG2789" transform="translate(475.20000000000005, 316.8) scale(2.2)" fill="rgba(255, 213, 127, 1)"></use><use xlink:href="#SvgjsG2793" transform="translate(475.20000000000005, 369.6) scale(2.2)" fill="rgba(223, 134, 83, 1)"></use><use xlink:href="#SvgjsG2788" transform="translate(475.20000000000005, 422.40000000000003) scale(2.2)" fill="rgba(255, 213, 127, 1)"></use><use xlink:href="#SvgjsG2792" transform="translate(475.20000000000005, 475.20000000000005) scale(2.2)" fill="rgba(223, 134, 83, 1)"></use></g></defs></svg>