<svg xmlns="http://www.w3.org/2000/svg" version="1.1" xmlns:xlink="http://www.w3.org/1999/xlink" xmlns:svgjs="http://svgjs.dev/svgjs" width="1440" height="560" preserveAspectRatio="none" viewBox="0 0 1440 560"><g clip-path="url(&quot;#SvgjsClipPath1075&quot;)" fill="none"><circle r="93.335" cx="-8.55" cy="73.76" stroke="#ff0000" stroke-opacity="0.25" stroke-width="2"></circle><circle r="93.335" cx="326.57" cy="426.35" stroke="#ff0000" stroke-opacity="0.25" stroke-width="2"></circle><circle r="93.335" cx="744.04" cy="654.88" stroke="#ff0000" stroke-opacity="0.25" stroke-width="2"></circle><circle r="49.785" cx="725.2" cy="340.7" stroke="#ff0000" stroke-opacity="0.25" stroke-width="2"></circle><circle r="114.2" cx="1333.36" cy="2.32" stroke="#ff0000" stroke-opacity="0.25" stroke-width="2"></circle><circle r="122.685" cx="845.7" cy="25.98" stroke="#ff0000" stroke-opacity="0.25" stroke-width="2"></circle><circle r="150.66" cx="173.92" cy="324.86" stroke="#ff0000" stroke-opacity="0.25" stroke-width="2"></circle><circle r="94.825" cx="56.24" cy="489.06" stroke="#ff0000" stroke-opacity="0.25" stroke-width="2"></circle><circle r="57.99" cx="669.03" cy="254.27" stroke="#ff0000" stroke-opacity="0.25" stroke-width="2"></circle><circle r="139.79" cx="616.05" cy="274.99" stroke="#ff0000" stroke-opacity="0.25" stroke-width="2"></circle><circle r="144.125" cx="839.36" cy="394.63" stroke="#ff0000" stroke-opacity="0.25" stroke-width="2"></circle><circle r="87.575" cx="602.07" cy="101.04" stroke="#ff0000" stroke-opacity="0.25" stroke-width="2"></circle><circle r="168.2" cx="725.69" cy="227.41" stroke="#ff0000" stroke-opacity="0.25" stroke-width="2"></circle><circle r="151.525" cx="421.62" cy="303.72" stroke="#ff0000" stroke-opacity="0.25" stroke-width="2"></circle><circle r="86.07" cx="9.17" cy="48.07" stroke="#ff0000" stroke-opacity="0.25" stroke-width="2"></circle><circle r="101.845" cx="1435.75" cy="205.48" stroke="#ff0000" stroke-opacity="0.25" stroke-width="2"></circle><circle r="88.72" cx="52.33" cy="40.51" stroke="#ff0000" stroke-opacity="0.25" stroke-width="2"></circle><circle r="57.275" cx="466.49" cy="530.58" stroke="#ff0000" stroke-opacity="0.25" stroke-width="2"></circle></g><defs><clipPath id="SvgjsClipPath1075"><rect width="1440" height="560" x="0" y="0"></rect></clipPath></defs></svg>