<svg xmlns="http://www.w3.org/2000/svg" version="1.1" xmlns:xlink="http://www.w3.org/1999/xlink" xmlns:svgjs="http://svgjs.dev/svgjs" width="1440" height="560" preserveAspectRatio="none" viewBox="0 0 1440 560"><g mask="url(&quot;#SvgjsMask1002&quot;)" fill="none"><path d="M -514.2379418105473,65 C -418.24,140.4 -226.24,428 -34.23794181054738,442 C 157.76,456 253.76,161.2 445.7620581894526,135 C 637.76,108.8 733.76,287.6 925.7620581894527,311 C 1117.76,334.4 1302.91,221.6 1405.7620581894525,252 C 1508.61,282.4 1433.15,420.8 1440,463" stroke="rgba(255, 0, 0, 0.58)" stroke-width="2"></path><path d="M -959.6650389363089,443 C -863.67,409.4 -671.67,291.2 -479.66503893630886,275 C -287.67,258.8 -191.67,381.2 0.3349610636911393,362 C 192.33,342.8 288.33,164.4 480.33496106369114,179 C 672.33,193.6 768.4,428.2 960.3349610636911,435 C 1152.27,441.8 1344.07,257.4 1440,213" stroke="rgba(255, 0, 0, 0.58)" stroke-width="2"></path><path d="M -787.7901784585481,404 C -691.79,371.4 -499.79,246 -307.79017845854816,241 C -115.79,236 -19.79,392 172.20982154145184,379 C 364.21,366 460.21,156.4 652.2098215414519,176 C 844.21,195.6 974.65,488.4 1132.209821541452,477 C 1289.77,465.6 1378.44,190.6 1440,119" stroke="rgba(255, 0, 0, 0.58)" stroke-width="2"></path><path d="M -234.0267590881284,321 C -138.03,287.8 53.97,122.6 245.9732409118716,155 C 437.97,187.4 533.97,502.6 725.9732409118716,483 C 917.97,463.4 1013.97,85.8 1205.9732409118717,57 C 1397.97,28.2 1639.17,313 1685.9732409118717,339 C 1732.78,365 1489.19,217.4 1440,187" stroke="rgba(255, 0, 0, 0.58)" stroke-width="2"></path></g><defs><mask id="SvgjsMask1002"><rect width="1440" height="560" fill="#ffffff"></rect></mask></defs></svg>